<svg width="214" height="38" viewBox="0 0 214 38" fill="none" xmlns="http://www.w3.org/2000/svg">
<path fill-rule="evenodd" clip-rule="evenodd" d="M214 0H0V37.7647H214V0ZM3.59663 34.1681V3.59663H10.4144V25.5698C10.4144 26.366 11.0867 27.0427 12.4314 27.6C13.1889 27.9184 14.0317 28.1493 14.9596 28.2926V3.59663H21.7774V28.2926C22.7054 28.1493 23.5576 27.9184 24.3341 27.6C25.6598 27.0427 26.3226 26.366 26.3226 25.5698V3.59663H33.1404V34.1681H3.59663ZM50.185 28.4359C52.0599 28.4359 53.6601 27.9742 54.9858 27.0506C56.3305 26.1112 57.0028 24.9807 57.0028 23.6591C57.0028 22.3376 56.3305 21.215 54.9858 20.2915C53.6601 19.3521 52.0599 18.8823 50.185 18.8823C48.3101 18.8823 46.7003 19.3521 45.3557 20.2915C44.03 21.215 43.3672 22.3376 43.3672 23.6591C43.3672 24.9807 44.03 26.1112 45.3557 27.0506C46.7003 27.9742 48.3101 28.4359 50.185 28.4359ZM63.8206 34.1681H36.5494V23.6591C36.5494 20.7612 37.875 18.2852 40.5264 16.2312C43.1967 14.1772 46.4162 13.1502 50.185 13.1502C52.7038 13.1502 54.9764 13.612 57.0028 14.5355V12.1948C57.0028 11.3987 56.3305 10.722 54.9858 10.1647C53.6601 9.60742 52.0599 9.32877 50.185 9.32877H36.5494V3.59663H63.8206V34.1681ZM74.0473 22.7038H67.2295V34.1681H94.5007V24.6145C94.5007 21.9713 93.1655 19.7183 90.4952 17.8553C87.8439 15.9924 84.6338 15.0609 80.8651 15.0609C78.9902 15.0609 77.3804 14.7823 76.0358 14.225C74.7101 13.6677 74.0473 12.991 74.0473 12.1948C74.0473 11.3987 74.7101 10.722 76.0358 10.1647C77.3804 9.60742 78.9902 9.32877 80.8651 9.32877H87.6829V13.1502H94.5007V3.59663H67.2295V12.1948C67.2295 14.5673 68.5552 16.5974 71.2065 18.2852C73.8768 19.9571 77.0963 20.7931 80.8651 20.7931C82.74 20.7931 84.3403 21.1672 85.6659 21.9156C87.0106 22.664 87.6829 23.5636 87.6829 24.6145C87.6829 25.6654 87.0106 26.565 85.6659 27.3134C84.3403 28.0617 82.74 28.4359 80.8651 28.4359H74.0473V22.7038ZM111.545 11.2395H125.181V16.9716H111.545V28.4359C113.42 28.4359 115.03 28.1573 116.374 27.6C117.7 27.0427 118.363 26.366 118.363 25.5698V22.7038H125.181V34.1681H104.727V16.9716H97.9096V11.2395H104.727V3.59663H111.545V11.2395ZM133.391 10.1647C134.735 10.722 135.408 11.3987 135.408 12.1948V25.5698C135.408 26.366 134.735 27.0427 133.391 27.6C132.065 28.1573 130.465 28.4359 128.59 28.4359V34.1681H149.043V28.4359C147.168 28.4359 145.568 28.1573 144.242 27.6C142.898 27.0427 142.225 26.366 142.225 25.5698V12.171C142.225 11.3908 142.898 10.722 144.242 10.1647C145.568 9.60742 147.168 9.32877 149.043 9.32877V3.59663H128.59V9.32877C130.465 9.32877 132.065 9.60742 133.391 10.1647ZM179.723 34.1681H172.905V12.1948C172.905 11.3987 172.233 10.722 170.888 10.1647C169.563 9.60742 167.963 9.32877 166.088 9.32877C164.213 9.32877 162.612 9.60742 161.287 10.1647C159.942 10.722 159.27 11.3908 159.27 12.171V34.1681H152.452V3.59663H179.723V34.1681ZM201.597 10.714C202.923 11.6535 203.586 12.776 203.586 14.0817V14.1294C203.586 15.4351 202.923 16.5497 201.597 17.4732C200.252 18.4126 198.643 18.8823 196.768 18.8823C194.893 18.8823 193.283 18.4206 191.938 17.4971C190.613 16.5576 189.95 15.4271 189.95 14.1056C189.95 12.784 190.613 11.6614 191.938 10.7379C193.283 9.79849 194.893 9.32877 196.768 9.32877C198.643 9.32877 200.252 9.79053 201.597 10.714ZM183.132 34.1681H210.403V3.59663H183.132V14.1056C183.132 17.0035 184.458 19.4794 187.109 21.5335C189.779 23.5875 192.999 24.6145 196.768 24.6145C199.287 24.6145 201.559 24.1527 203.586 23.2292V25.5937C203.586 26.3739 202.923 27.0427 201.597 27.6C200.252 28.1573 198.643 28.4359 196.768 28.4359H183.132V34.1681Z" fill="white"/>
</svg>
